HIERARCHY
ROOT hip
{
	OFFSET 0.000000 0.000000 0.000000 
	CHANNELS 6 Xposition Yposition Zposition Xrotation Zrotation Yrotation
	JOINT abdomen
	{
		OFFSET 0.000000 3.402643 0.000000 
		CHANNELS 3 Xrotation Zrotation Yrotation
		JOINT chest
		{
			OFFSET 0.000000 8.438565 -0.680529 
			CHANNELS 3 Xrotation Zrotation Yrotation
			JOINT neck
			{
				OFFSET 0.000000 10.207942 -0.272212 
				CHANNELS 3 Xrotation Zrotation Yrotation
				JOINT head
				{
					OFFSET 0.000000 3.130431 0.000000 
					CHANNELS 3 Xrotation Zrotation Yrotation
					End Site
					{
						OFFSET 0.000000 3.130435 0.000000 
					}
				}
			}
			JOINT lCollar
			{
				OFFSET 3.470700 6.669187 -0.816635 
				CHANNELS 3 Yrotation Zrotation Xrotation
				JOINT lShldr
				{
					OFFSET 3.198488 0.000000 0.000000 
					CHANNELS 3 Zrotation Yrotation Xrotation
					JOINT lForeArm
					{
						OFFSET 10.139888 0.000000 0.000000 
						CHANNELS 3 Yrotation Zrotation Xrotation
						JOINT lHand
						{
							OFFSET 8.370511 0.000000 0.000000 
							CHANNELS 3 Zrotation Yrotation Xrotation
							End Site
							{
								OFFSET 4.083176 0.000000 0.000000 
							}
						}
					}
				}
			}
			JOINT rCollar
			{
				OFFSET -3.470700 6.669187 -0.816635 
				CHANNELS 3 Yrotation Zrotation Xrotation
				JOINT rShldr
				{
					OFFSET -3.198488 0.000000 0.000000 
					CHANNELS 3 Zrotation Yrotation Xrotation
					JOINT rForeArm
					{
						OFFSET -10.139888 0.000000 0.000000 
						CHANNELS 3 Yrotation Zrotation Xrotation
						JOINT rHand
						{
							OFFSET -8.370511 0.000000 0.000000 
							CHANNELS 3 Zrotation Yrotation Xrotation
							End Site
							{
								OFFSET -4.083176 0.000000 0.000000 
							}
						}
					}
				}
			}
		}
	}
	JOINT lThigh
	{
		OFFSET 5.308129 -1.633274 1.361059 
		CHANNELS 3 Xrotation Zrotation Yrotation
		JOINT lShin
		{
			OFFSET -2.041588 -20.007561 0.000000 
			CHANNELS 3 Xrotation Zrotation Yrotation
			JOINT lFoot
			{
				OFFSET 0.000000 -19.190928 -1.224953 
				CHANNELS 3 Xrotation Yrotation Zrotation
				End Site
				{
					OFFSET 0.000000 -2.449906 4.627600 
				}
			}
		}
	}
	JOINT rThigh
	{
		OFFSET -5.308129 -1.633274 1.361059 
		CHANNELS 3 Xrotation Zrotation Yrotation
		JOINT rShin
		{
			OFFSET 2.041588 -20.007561 0.000000 
			CHANNELS 3 Xrotation Zrotation Yrotation
			JOINT rFoot
			{
				OFFSET 0.000000 -19.190928 -1.224953 
				CHANNELS 3 Xrotation Yrotation Zrotation
				End Site
				{
					OFFSET 0.000000 -2.449906 4.627600 
				}
			}
		}
	}
}
MOTION
Frames: 18
Frame Time: 0.016667
-0.195138 59.019020 3.257397 -0.089713 3.394271 -10.947066 0.243721 0.117187 -0.205078 -1.093470 0.029296 0.546880 -1.464785 -0.490251 18.701799 -17.357241 -7.318800 16.928667 -4.773854 -2.476514 7.886799 -25.101107 39.335461 -23.548166 -26.596647 1.430573 2.963600 8.085008 4.696274 -15.054990 8.257544 5.587521 2.212396 15.931322 -8.871869 -8.075320 21.182165 -1.959865 4.697503 -8.103680 -4.708190 -15.018762 -15.015235 -2.899995 -1.203642 17.192787 -0.634492 2.347663 21.684885 -1.293079 -10.592504 0.497595 -7.023674 0.116454 6.040258 -0.108311 3.556031 26.712774 6.442712 -5.213094 
-0.274050 59.106613 3.245499 -0.157551 3.470171 -11.016466 0.272897 0.126952 -0.244140 -0.985749 0.058591 0.566416 -2.034090 -3.082271 15.804559 -18.500801 -4.504644 19.427275 -4.672966 -2.752700 7.713958 -21.121225 40.228809 -13.769814 -32.047726 1.475267 2.610694 8.085008 4.696274 -15.054990 8.597664 4.753565 4.800508 12.840242 -6.975753 -3.441898 24.815382 -3.436158 3.926920 -8.103680 -4.708190 -15.018762 -15.794640 -0.820052 2.175094 15.362405 -0.704953 3.425576 21.454559 -1.368913 -10.654772 0.829641 -7.132975 0.368626 6.237699 -0.186502 3.951074 27.323990 5.743855 -5.264785 
-0.363480 59.226357 3.293391 -0.040233 3.583885 -11.125476 0.253407 0.117186 -0.244140 -0.966178 0.058590 0.605478 -1.868794 -3.627295 15.275259 -19.621294 -4.415597 19.983540 -4.907311 -3.002551 8.150393 -18.478518 39.758556 -7.922928 -35.217995 2.133487 3.287908 8.085008 4.696274 -15.054990 8.996970 4.855345 4.853581 9.367765 -5.281471 1.870523 27.214148 -4.377879 4.303980 -8.103680 -4.708190 -15.018762 -15.107815 -0.507873 1.885948 12.335063 -0.673178 3.838799 21.547045 0.067444 -10.275253 0.956673 -7.329525 0.671434 7.077883 -0.225729 3.930735 27.890665 5.289513 -5.376266 
-0.452904 59.346104 3.341282 0.066884 3.697501 -11.234530 0.243701 0.107421 -0.234375 -0.956372 0.058590 0.644541 -1.703247 -4.174732 14.746751 -20.749973 -4.326652 20.539095 -5.138680 -3.255243 8.576694 -15.947416 39.095230 -2.168892 -38.397591 2.753554 3.998591 8.085008 4.696274 -15.054990 9.385543 4.966793 4.906426 6.071562 -3.288862 7.057854 29.620451 -5.311475 4.717462 -8.103680 -4.708190 -15.018762 -14.417532 -0.195294 1.580534 9.284857 -0.655695 4.250122 21.629795 1.529396 -9.873987 1.083475 -7.533288 0.963507 7.928197 -0.265004 3.900451 28.425751 4.837785 -5.470544 
-0.520444 59.477612 3.428432 0.291396 3.813086 -11.187089 0.233881 0.107421 -0.263671 -0.946820 0.039060 0.654303 -1.747070 -4.486221 14.292078 -21.775179 -4.191621 20.790041 -5.374447 -3.475700 8.740067 -15.242186 37.639572 0.325298 -39.198856 4.423667 5.616575 8.085008 4.696274 -15.054990 9.607914 5.005411 4.904005 3.841456 -1.444126 10.698079 30.049543 -5.822917 5.150066 -8.103680 -4.708190 -15.018762 -13.752602 -0.439590 1.526256 6.883041 -0.585895 4.155229 21.196873 2.362397 -8.924302 0.917959 -7.575320 1.324437 9.818913 -0.284522 3.790159 28.770290 4.524551 -5.371078 
-0.587979 59.609108 3.515581 0.508895 3.919255 -11.129281 0.233844 0.107421 -0.283203 -0.947043 0.019530 0.654300 -1.794951 -4.798856 13.828074 -22.806175 -4.047555 21.050844 -5.599983 -3.695064 8.893688 -14.622796 36.165371 2.746699 -40.039227 6.080876 7.256464 8.085008 4.696274 -15.054990 9.820555 5.043183 4.900811 1.731116 0.547511 14.269276 30.477745 -6.314910 5.581669 -8.103680 -4.708190 -15.018762 -13.086119 -0.664031 1.429123 4.492231 -0.554676 4.084925 20.766228 3.208137 -7.982625 0.761662 -7.612966 1.675870 11.719546 -0.313880 3.659494 29.133001 4.219758 -5.306847 
-0.626716 59.715874 3.656107 0.823318 3.941424 -10.904548 0.233618 0.126951 -0.341796 -0.947164 0.009765 0.595705 -2.133378 -4.859993 13.623762 -23.647301 -3.722847 20.905243 -5.773016 -3.843945 8.920912 -14.777122 35.312386 3.468788 -41.606483 6.506164 7.820081 8.085008 4.696274 -15.054990 9.803129 5.001284 4.785362 0.652236 1.700803 16.681831 29.263412 -6.419633 5.814061 -8.103680 -4.708190 -15.018762 -12.746685 -1.512853 1.930196 3.990474 -0.595675 3.529852 19.801125 2.363719 -7.298301 0.322882 -7.380744 1.913744 14.430849 -0.297657 3.580988 29.262640 4.094196 -5.036830 
-0.665451 59.822643 3.796638 1.139718 3.953965 -10.679817 0.233376 0.146481 -0.390624 -0.957031 0.000000 0.537109 -2.468267 -4.911867 13.408907 -24.486618 -3.388368 20.760374 -5.935580 -3.992487 8.958594 -14.936954 34.456142 4.199573 -43.166733 6.921364 8.399156 8.085008 4.696274 -15.054990 9.784741 4.961135 4.679482 -0.371253 2.897885 19.072275 28.059162 -6.534288 6.045293 -8.103680 -4.708190 -15.018762 -12.418722 -2.372298 2.437006 3.477162 -0.623607 2.946314 18.832714 1.525641 -6.672328 -0.126547 -7.138077 2.190756 17.163610 -0.285957 3.435775 29.401485 3.995748 -4.783447 
-0.669746 59.868881 4.013535 1.569446 3.860090 -10.512211 0.233102 0.166011 -0.439451 -0.976563 0.000000 0.498047 -2.987958 -4.875839 13.309967 -25.224672 -2.917069 20.564957 -5.978606 -4.030036 8.967453 -15.292855 34.264942 4.241021 -43.798180 7.035060 8.542609 8.085008 4.696274 -15.054990 9.590718 4.852004 4.092654 -0.562003 3.060421 20.963310 25.923531 -6.275496 5.900287 -8.103680 -4.708190 -15.018762 -11.960779 -3.221908 2.964271 3.625412 -0.692396 2.460229 18.683352 0.306991 -6.515179 -0.644287 -6.785121 2.293597 19.711123 -0.217878 3.303730 29.495445 4.089287 -4.338369 
-0.674041 59.915100 4.230441 1.988208 3.765961 -10.354374 0.232825 0.185540 -0.478513 -1.005859 0.000000 0.449219 -3.496595 -4.830067 13.221584 -25.956188 -2.444555 20.370541 -6.011274 -4.067100 8.986849 -15.630875 34.080711 4.279370 -44.429688 7.145090 8.682381 8.085008 4.696274 -15.054990 9.384424 4.758104 3.516346 -0.751677 3.242249 22.843470 23.796484 -6.008080 5.771629 -8.103680 -4.708190 -15.018762 -11.498080 -4.070562 3.484243 3.774237 -0.761335 1.993529 18.536850 -0.941531 -6.396679 -1.169491 -6.416469 2.384193 22.278646 -0.149934 3.147163 29.577608 4.213461 -3.918109 
-0.668931 59.897160 4.535327 2.551528 3.601974 -10.410976 0.223060 0.185540 -0.478513 -1.074142 0.009765 0.449220 -4.019620 -4.687465 13.218351 -26.560595 -1.978894 20.266251 -5.912621 -3.955666 8.754397 -15.523799 34.427273 4.999847 -42.437450 7.433997 8.713819 8.085008 4.696274 -15.054990 9.085382 4.618337 2.358840 -0.420063 2.634413 24.727251 21.258224 -5.250524 5.028984 -8.103680 -4.708190 -15.018762 -10.786972 -4.519662 3.675176 4.069289 -0.791098 1.755114 19.356117 -1.591390 -6.195993 -1.503327 -6.140527 2.332545 23.673141 -0.101368 2.984918 29.622749 4.303551 -3.501391 
-0.663826 59.879196 4.840225 3.124351 3.437936 -10.478014 0.213213 0.195306 -0.478513 -1.142425 0.019531 0.449222 -4.542658 -4.544860 13.216003 -27.153303 -1.503548 20.153599 -5.822187 -3.847536 8.531377 -15.415664 34.774204 5.710048 -40.446083 7.731607 8.734683 8.085008 4.696274 -15.054990 8.784334 4.484277 1.209414 -0.107479 2.008984 26.604015 18.717295 -4.465478 4.321363 -8.103680 -4.708190 -15.018762 -10.093679 -4.959054 3.852853 4.358130 -0.800139 1.517186 20.201302 -2.257479 -6.058303 -1.823466 -5.842181 2.271178 25.076149 -0.052999 2.853823 29.677647 4.392615 -3.094144 
-0.704269 59.800167 5.219129 3.832238 3.194075 -10.837036 0.193934 0.175776 -0.449217 -1.239725 0.058592 0.498057 -4.847849 -4.352797 13.320064 -27.736147 -1.090313 20.247934 -5.633191 -3.608623 7.677526 -14.736630 35.459671 7.611390 -37.423153 7.745201 8.487177 8.085008 4.696274 -15.054990 8.450222 4.106741 0.231930 0.713931 0.772391 27.683136 16.435396 -3.602673 3.478809 -8.103680 -4.708190 -15.018762 -9.143812 -4.869841 3.618029 4.564048 -0.761366 1.518497 21.628572 -2.252267 -5.798373 -1.873149 -5.650143 2.101580 24.922884 -0.062581 2.768031 29.703329 4.199861 -3.029683 
-0.744721 59.721146 5.598040 4.552927 2.950665 -11.196284 0.174523 0.175777 -0.410154 -1.337052 0.087887 0.546889 -5.150071 -4.151386 13.424292 -28.317513 -0.677629 20.333433 -5.440192 -3.365607 6.812616 -14.002066 36.122410 9.565389 -34.407269 7.738750 8.237315 8.085008 4.696274 -15.054990 8.115153 3.743198 -0.736420 1.510809 -0.494701 28.747446 14.170719 -2.710894 2.682289 -8.103680 -4.708190 -15.018762 -8.200171 -4.763906 3.384625 4.769143 -0.722398 1.529739 23.077251 -2.257824 -5.551121 -1.910803 -5.450302 1.942557 24.768881 -0.072389 2.701732 29.738756 4.009331 -2.984012 
-0.850765 59.587109 6.024378 5.341246 2.619225 -11.809363 0.145472 0.156247 -0.371092 -1.443790 0.146476 0.595726 -5.336872 -3.919392 13.665059 -28.763958 -0.402404 20.527845 -5.276142 -3.153719 5.558480 -13.201859 36.852776 11.681634 -30.113737 7.270360 7.518161 8.085008 4.696274 -15.054990 7.859662 3.185735 -1.337398 2.891165 -2.329329 28.513414 12.323719 -1.782648 1.848665 -8.103680 -4.708190 -15.018762 -6.974432 -4.341518 3.035694 4.513714 -0.663658 1.601007 24.650579 -2.148409 -5.255480 -1.628261 -5.343459 1.698991 23.177618 -0.111221 2.642957 29.733006 3.602482 -3.139464 
-0.956813 59.453053 6.450717 6.134876 2.298563 -12.412182 0.116395 0.136716 -0.332030 -1.550537 0.195300 0.644561 -5.521737 -3.687796 13.906058 -29.224590 -0.118747 20.712925 -5.107543 -2.930318 4.293738 -12.349167 37.559460 13.839655 -25.838461 6.755410 6.831453 8.085008 4.696274 -15.054990 7.602858 2.623998 -1.938608 4.285297 -4.154552 28.239618 10.495211 -0.844362 1.042808 -8.103680 -4.708190 -15.018762 -5.765196 -3.912638 2.716108 4.260474 -0.594599 1.691688 26.229517 -2.081547 -4.951987 -1.355019 -5.225201 1.466116 21.586655 -0.146446 2.576508 29.759783 3.218152 -3.331640 
-1.089785 59.264900 6.901810 6.876300 1.941200 -12.995584 0.077476 0.126951 -0.292968 -1.628223 0.234360 0.644566 -5.721840 -3.457203 14.107697 -29.469625 -0.146037 20.830133 -5.050367 -3.106265 3.379631 -11.916755 37.938889 14.507749 -19.836411 6.130776 5.817513 8.085008 4.696274 -15.054990 7.551335 2.449136 -2.617257 5.670546 -6.664626 27.120384 8.513404 -0.216152 0.470620 -8.103680 -4.708190 -15.018762 -4.318937 -3.306278 2.356757 3.675659 -0.584975 1.902886 27.711082 -1.786262 -4.828528 -0.808788 -5.235669 1.145767 19.067146 -0.198347 2.503699 29.779959 2.875421 -3.338628 
-1.222757 59.076748 7.352899 7.622379 1.594719 -13.589221 0.048370 0.107421 -0.244140 -1.705862 0.273420 0.654336 -5.908143 -3.217510 14.309603 -29.714771 -0.173284 20.947342 -4.990262 -3.275389 2.474585 -11.453953 38.313194 15.207568 -13.859327 5.395459 4.886088 8.085008 4.696274 -15.054990 7.486836 2.265412 -3.305452 7.104476 -9.140282 25.934626 6.530447 0.431128 -0.074838 -8.103680 -4.708190 -15.018762 -2.864682 -2.699942 2.020900 3.071350 -0.565895 2.144256 29.179882 -1.520609 -4.697976 -0.273035 -5.263030 0.843464 16.539196 -0.237058 2.396232 29.816204 2.555310 -3.381597 
